<?xml version="1.0" encoding="utf-8"?>
<!-- Generator: Adobe Illustrator 23.0.1, SVG Export Plug-In . SVG Version: 6.00 Build 0)  -->
<svg version="1.1" id="Layer_1" xmlns="http://www.w3.org/2000/svg" xmlns:xlink="http://www.w3.org/1999/xlink" x="0px" y="0px"
	 viewBox="0 0 25.4 25.2" style="enable-background:new 0 0 25.4 25.2;" xml:space="preserve">
<style type="text/css">
	.st0{fill:#11978E;}
</style>
<path class="st0" d="M12.7,2.6c5.5,0,10,4.5,10,10s-4.5,10-10,10s-10-4.5-10-10S7.2,2.6,12.7,2.6z M12.7,0.6c-6.6,0-12,5.4-12,12
	s5.4,12,12,12s12-5.4,12-12S19.3,0.6,12.7,0.6z M10.7,10.6h-2v2h2v6h3v-6h1.8l0.2-2h-2V9.8c0-0.5,0.1-0.7,0.6-0.7h1.4V6.6h-2.4
	c-1.8,0-2.6,0.8-2.6,2.3C10.7,8.9,10.7,10.6,10.7,10.6z"/>
</svg>
